<svg xmlns="http://www.w3.org/2000/svg" version="1.1" xmlns:xlink="http://www.w3.org/1999/xlink" xmlns:svgjs="http://svgjs.com/svgjs" width="1440" height="560" preserveAspectRatio="none" viewBox="0 0 1440 560"><g mask="url(&quot;#SvgjsMask2382&quot;)" fill="none"><rect width="1440" height="560" x="0" y="0" fill="url(#SvgjsLinearGradient2383)"></rect><path d="M1440 0L733.82 0L1440 187.27z" fill="rgba(255, 255, 255, .1)"></path><path d="M733.82 0L1440 187.27L1440 329.82000000000005L627.96 0z" fill="rgba(255, 255, 255, .075)"></path><path d="M627.96 0L1440 329.82000000000005L1440 466.61L456 0z" fill="rgba(255, 255, 255, .05)"></path><path d="M456 0L1440 466.61L1440 485.53000000000003L186.39 0z" fill="rgba(255, 255, 255, .025)"></path><path d="M0 560L674.34 560L0 519.51z" fill="rgba(0, 0, 0, .1)"></path><path d="M0 519.51L674.34 560L996.09 560L0 252.06z" fill="rgba(0, 0, 0, .075)"></path><path d="M0 252.06L996.09 560L1084.6000000000001 560L0 145.53z" fill="rgba(0, 0, 0, .05)"></path><path d="M0 145.52999999999997L1084.6000000000001 560L1096.8400000000001 560L0 103.13999999999997z" fill="rgba(0, 0, 0, .025)"></path></g><defs><mask id="SvgjsMask2382"><rect width="1440" height="560" fill="#ffffff"></rect></mask><linearGradient x1="15.28%" y1="-39.29%" x2="84.72%" y2="139.29%" gradientUnits="userSpaceOnUse" id="SvgjsLinearGradient2383"><stop stop-color="#0e2a47" offset="0"></stop><stop stop-color="rgba(22, 2, 43, 1)" offset="1"></stop><stop stop-color="rgba(50, 0, 64, 1)" offset="1"></stop><stop stop-color="rgba(125, 0, 158, 1)" offset="1"></stop></linearGradient></defs></svg>

