<svg xmlns="http://www.w3.org/2000/svg" version="1.1" xmlns:xlink="http://www.w3.org/1999/xlink" xmlns:svgjs="http://svgjs.dev/svgjs" width="2160" height="560" preserveAspectRatio="none" viewBox="0 0 2160 560"><g mask="url(&quot;#SvgjsMask1299&quot;)" fill="none"><rect width="2160" height="560" x="0" y="0" fill="rgba(255, 255, 255, 1)"></rect><use xlink:href="#SvgjsG1314" transform="translate(0, 0)" fill="rgba(0, 163, 75, 1)"></use><use xlink:href="#SvgjsG1314" transform="translate(0, 480)" fill="rgba(0, 163, 75, 1)"></use><use xlink:href="#SvgjsG1314" transform="translate(480, 0)" fill="rgba(0, 163, 75, 1)"></use><use xlink:href="#SvgjsG1314" transform="translate(480, 480)" fill="rgba(0, 163, 75, 1)"></use><use xlink:href="#SvgjsG1314" transform="translate(960, 0)" fill="rgba(0, 163, 75, 1)"></use><use xlink:href="#SvgjsG1314" transform="translate(960, 480)" fill="rgba(0, 163, 75, 1)"></use><use xlink:href="#SvgjsG1314" transform="translate(1440, 0)" fill="rgba(0, 163, 75, 1)"></use><use xlink:href="#SvgjsG1314" transform="translate(1440, 480)" fill="rgba(0, 163, 75, 1)"></use><use xlink:href="#SvgjsG1314" transform="translate(1920, 0)" fill="rgba(0, 163, 75, 1)"></use><use xlink:href="#SvgjsG1314" transform="translate(1920, 480)" fill="rgba(0, 163, 75, 1)"></use></g><defs><mask id="SvgjsMask1299"><rect width="2160" height="560" fill="#ffffff"></rect></mask><g id="SvgjsG1311"><path d="M6.498 9.304L12.139 3.663l1.565 1.566-5.641 5.641z"></path><path d="M6.8 0.457h2.541v8.028H6.8z"></path><path d="M8.072 10.876L2.429 5.238l1.563-1.566L9.636 9.313zM1.2 13.277h13.733v2.266H1.2z"></path><path d="M0.733 9.143h2.267v6.4h-2.267z m12.267 0h2.267v6.4h-2.267z"></path></g><g id="SvgjsG1305"><path d="M7.713 15.485C3.459 15.485 0 12.025 0 7.768 0 3.513 3.459 0.051 7.713 0.051S15.432 3.513 15.432 7.768c0 4.257-3.465 7.716-7.719 7.717z m0-1.91c3.201 0 5.81-2.604 5.81-5.809 0-3.199-2.61-5.807-5.81-5.807-3.202 0-5.804 2.609-5.804 5.807-0.001 3.206 2.602 5.809 5.804 5.809z"></path><path d="M7.753 8.787a0.574 0.574 0 0 1-0.554-0.042 0.578 0.578 0 0 1-0.259-0.399L6.931 3.862a0.58 0.58 0 0 1 1.162 0v3.478l2.975-1.4a0.578 0.578 0 0 1 0.773 0.275c0.138 0.292 0.011 0.637-0.276 0.774l-3.81 1.798z"></path></g><g id="SvgjsG1309"><path d="M2.524 8.637H0.014V7.308h2.51v1.329zM3.656 4.576L1.884 2.804l0.935-0.935 1.772 1.772-0.935 0.935z m0 6.817l0.935 0.935-1.772 1.773-0.934-0.936 1.771-1.772z m4.997-8.884h-1.33V-0.002h1.33v2.511z m-1.33 10.952h1.33v2.51h-1.33v-2.509zM12.344 4.576l-0.96-0.935 1.796-1.772 0.935 0.935-1.772 1.772z m0 6.792l1.771 1.797-0.935 0.936-1.771-1.774 0.936-0.96z m3.643-4.06v1.329h-2.51V7.308h2.509z"></path><path d="M3.702 7.984a4.184 4.184 0 1 0 8.368 0 4.184 4.184 0 1 0-8.368 0"></path></g><g id="SvgjsG1300"><path d="M15.233 9.431c0.295 0 0.569-0.239 0.61-0.532 0 0 0.056-0.411 0.056-0.899s-0.056-0.899-0.056-0.899c-0.041-0.292-0.315-0.531-0.61-0.53h-1.524c-0.295 0-0.602-0.188-0.681-0.418s-0.188-0.967 0.021-1.176l1.078-1.077c0.209-0.209 0.225-0.565 0.036-0.792l-1.268-1.268c-0.227-0.189-0.583-0.173-0.792 0.036l-1.078 1.077c-0.208 0.209-0.556 0.293-0.772 0.187s-0.822-0.552-0.821-0.847V0.767c0-0.295-0.239-0.569-0.531-0.61 0 0-0.411-0.057-0.9-0.056s-0.899 0.057-0.899 0.056c-0.293 0.04-0.532 0.315-0.532 0.61v1.524c0 0.295-0.188 0.601-0.418 0.681s-0.967 0.188-1.176-0.021l-1.078-1.078C3.689 1.665 3.333 1.649 3.107 1.837l-1.268 1.268c-0.189 0.227-0.173 0.583 0.036 0.792l1.077 1.078c0.209 0.209 0.293 0.556 0.187 0.772s-0.552 0.822-0.847 0.822H0.767c-0.295 0-0.569 0.239-0.61 0.531 0 0-0.057 0.411-0.056 0.899s0.057 0.899 0.056 0.9c0.04 0.293 0.315 0.532 0.61 0.532h1.525c0.295 0 0.601 0.188 0.681 0.417 0.079 0.23 0.188 0.967-0.02 1.176l-1.078 1.077C1.667 12.311 1.651 12.667 1.84 12.893l1.267 1.268c0.227 0.189 0.583 0.173 0.792-0.036l1.077-1.077c0.209-0.208 0.556-0.292 0.772-0.187s0.821 0.553 0.822 0.848v1.524c0 0.295 0.239 0.569 0.532 0.61 0 0 0.411 0.057 0.899 0.057s0.899-0.056 0.899-0.057c0.293-0.04 0.531-0.315 0.532-0.609v-1.524c0-0.295 0.188-0.602 0.418-0.681 0.23-0.079 0.967-0.188 1.176 0.021l1.077 1.077c0.209 0.209 0.565 0.225 0.792 0.036l1.268-1.267c0.189-0.227 0.173-0.583-0.036-0.792l-1.078-1.077c-0.209-0.209-0.293-0.557-0.186-0.773 0.106-0.216 0.552-0.822 0.847-0.822h1.525zM8 10.892c-1.597 0-2.891-1.294-2.891-2.892 0-1.596 1.295-2.891 2.891-2.891S10.892 6.404 10.892 8 9.597 10.892 8 10.892z"></path></g><g id="SvgjsG1313"><path d="M16 11.289H0C0.001 12.447 0.884 12.984 1.594 12.987H14.406c0.847-0.003 1.59-0.669 1.594-1.698zM12.96 3.12H3.413v6.263c0.002 0.851 0.734 1.523 1.525 1.525h6.194c0.893-0.002 1.502-0.752 1.498-1.525v-0.519c1.768-0.002 3.05-1.328 3.05-2.876 0.001-1.575-1.256-2.869-2.72-2.868zM12.63 7.668V4.298h0.33c1.211-0.002 1.599 1.143 1.593 1.698 0.001 0.896-0.662 1.755-1.923 1.672z"></path></g><g id="SvgjsG1306"><path d="M10.596 3.917a0.64 0.64 0 0 0-0.639 0.641c0 0.354 0.287 0.64 0.639 0.64a0.639 0.639 0 0 0 0.639-0.64 0.639 0.639 0 0 0-0.639-0.641z m-0.151 5.25a0.642 0.642 0 0 0 0.643 0.641c0.352 0 0.638-0.286 0.637-0.64a0.639 0.639 0 0 0-0.637-0.641 0.641 0.641 0 0 0-0.642 0.641z m-4.678-5.945a0.641 0.641 0 0 0 0 1.282 0.64 0.64 0 0 0 0.642-0.64 0.641 0.641 0 0 0-0.642-0.642z"></path><path d="M8.659 0C5.904 0 3.363 2.068 2.835 4.347c-0.119 0.507-0.25 1.83-0.25 1.829L1.316 9.37A0.488 0.488 0 0 0 1.28 9.561a0.491 0.491 0 0 0 0.491 0.489h0.814v1.697c0 1.323 1.072 2.395 2.394 2.395h0.951V16H12.408V10.847c1.413-1.111 2.32-2.838 2.32-4.775C14.728 2.718 12.01 0 8.659 0z m-4.583 7.387c-0.372 0-0.675-0.304-0.675-0.679a0.677 0.677 0 0 1 0.675-0.677c0.375 0 0.68 0.303 0.68 0.677a0.68 0.68 0 0 1-0.68 0.679z m8.959-0.918l-0.631 0.632-0.77-0.543c-0.148 0.077-0.304 0.139-0.467 0.18l-0.142 0.838h0.294l0.079 0.448c0.031 0.008 0.062 0.013 0.092 0.024 0.079 0.029 0.152 0.067 0.22 0.11l0.355-0.25 0.292 0.291-0.262 0.371c0.056 0.1 0.101 0.206 0.125 0.318l0.429 0.074v0.412l-0.446 0.076c-0.009 0.032-0.013 0.063-0.024 0.094a1.147 1.147 0 0 1-0.112 0.223l0.251 0.353-0.292 0.291-0.369-0.262a1.149 1.149 0 0 1-0.318 0.126l-0.075 0.429H10.851l-0.074-0.448c-0.032-0.009-0.064-0.013-0.096-0.025a1.174 1.174 0 0 1-0.221-0.11l-0.356 0.252L9.815 10.08l0.262-0.37a1.151 1.151 0 0 1-0.125-0.319l-0.431-0.074v-0.411l0.45-0.077c0.008-0.032 0.013-0.063 0.025-0.094 0.029-0.079 0.066-0.152 0.109-0.22l-0.251-0.356 0.291-0.291 0.371 0.262a1.174 1.174 0 0 1 0.317-0.125l0.064-0.372h-0.776L9.96 6.704c-0.035-0.011-0.07-0.02-0.104-0.034a2.221 2.221 0 0 1-0.352-0.168l-0.744 0.524-0.63-0.632 0.542-0.767a2.184 2.184 0 0 1-0.181-0.469l-0.894-0.154V4.27l-0.449 0.078c-0.007 0.022-0.009 0.044-0.017 0.065a1.402 1.402 0 0 1-0.109 0.223l0.345 0.489-0.416 0.414-0.506-0.357a1.438 1.438 0 0 1-0.294 0.116l-0.102 0.586-0.584 0-0.106-0.611c-0.02-0.007-0.042-0.009-0.062-0.017a1.43 1.43 0 0 1-0.226-0.11l-0.49 0.345-0.414-0.415 0.359-0.508a1.485 1.485 0 0 1-0.112-0.291L3.824 4.176V3.589l0.608-0.105c0.007-0.022 0.012-0.043 0.02-0.063 0.029-0.08 0.068-0.154 0.109-0.225l-0.345-0.488 0.413-0.415 0.508 0.358a1.439 1.439 0 0 1 0.295-0.117l0.102-0.586h0.584L6.224 2.56c0.021 0.007 0.043 0.008 0.063 0.016 0.08 0.03 0.154 0.069 0.225 0.11l0.489-0.344 0.415 0.414-0.359 0.507a1.397 1.397 0 0 1 0.115 0.293l0.586 0.101v0.427l0.768-0.132c0.011-0.035 0.02-0.07 0.033-0.105 0.046-0.126 0.104-0.243 0.17-0.355l-0.528-0.74 0.634-0.633 0.77 0.544a2.192 2.192 0 0 1 0.468-0.181l0.151-0.894h0.894l0.162 0.928c0.035 0.01 0.069 0.02 0.104 0.033 0.124 0.046 0.241 0.104 0.352 0.168l0.743-0.523 0.629 0.631-0.542 0.77c0.077 0.148 0.138 0.304 0.18 0.466l0.895 0.154v0.894l-0.929 0.16c-0.011 0.035-0.02 0.07-0.032 0.104-0.046 0.125-0.104 0.242-0.17 0.353l0.525 0.743z"></path></g><g id="SvgjsG1304"><path d="M1.507 0.867v14.666h12.877V0.867h-12.878z m3.76 12.876H3.087V11.564H5.267v2.179z m0-3.328H3.087V8.236H5.267v2.179z m3.768 3.328H6.856V11.564h2.179v2.179z m0-3.328H6.856V8.236h2.179v2.179z m3.775 3.328H10.631v-5.507h2.179v5.507z m0.08-7.65h-9.78V2.602h9.78V6.093z"></path></g><g id="SvgjsG1302"><path d="M0.436 7.836c0 4.161 3.373 7.533 7.534 7.534 4.16 0 7.533-3.373 7.533-7.534 0-2.169-0.918-4.121-2.384-5.496L11.204 4.385c0.922 0.864 1.499 2.092 1.499 3.452 0 2.61-2.123 4.733-4.733 4.733-2.61 0-4.733-2.123-4.733-4.733"></path><path d="M12.703 7.836c0 2.61-2.123 4.733-4.733 4.734-2.61 0-4.733-2.123-4.734-4.734 0-1.36 0.578-2.587 1.5-3.452l-1.916-2.044C1.354 3.715 0.436 5.668 0.436 7.836c0 4.161 3.373 7.533 7.534 7.533 4.161 0 7.533-3.373 7.533-7.533"></path><path d="M6.638 0H9.301v8.21H6.638z"></path></g><g id="SvgjsG1312"><path d="M12.865 12.36c-3.667 0-6.639-2.973-6.639-6.639 0-2.102 0.978-3.975 2.503-5.192-3.976 0.149-7.153 3.416-7.153 7.428 0 4.106 3.328 7.434 7.435 7.434 2.66 0 4.993-1.399 6.308-3.502a6.601 6.601 0 0 1-2.455 0.471z"></path></g><g id="SvgjsG1303"><path d="M1.396 3.591v6.948h-1.04A0.356 0.356 0 0 1 0 10.182V1.217C0 0.914 0.227 0.667 0.537 0.667h4.593C5.44 0.667 5.667 0.913 5.667 1.216v0.527h7.102c0.198 0 0.357 0.159 0.357 0.355v2.016h-6.064V3.587c0-0.303-0.226-0.549-0.537-0.55H1.933c-0.311 0-0.537 0.25-0.537 0.555z" fill-rule="evenodd"></path><path d="M15.918 14.746c0 0.197-0.159 0.355-0.357 0.355H3.149c-0.198 0-0.357-0.158-0.356-0.355V5.78c0-0.303 0.227-0.55 0.536-0.55h4.593c0.311 0 0.538 0.246 0.538 0.549v0.527h7.101c0.198 0 0.357 0.159 0.357 0.355v8.085z" fill-rule="evenodd"></path></g><g id="SvgjsG1301"><path d="M13.759 16H2.203V0H7.461v6.173h6.298z"></path><path d="M8.597 0v5.162h5.162z"></path></g><g id="SvgjsG1310"><path d="M8 2.022C3.815 2.022 0.422 4.579 0.422 7.733c0 1.544 0.814 2.944 2.135 3.972l0.003 3.427 3.961-1.798c0.479 0.071 0.973 0.11 1.48 0.11 4.185 0 7.578-2.557 7.578-5.711 0-3.154-3.392-5.711-7.577-5.711zM4.81 8.933a1.067 1.067 0 1 1 0-2.133 1.067 1.067 0 0 1 0 2.133z m3.186 0a1.067 1.067 0 1 1 0-2.133 1.067 1.067 0 0 1 0 2.133z m3.143 0c-0.589 0-1.067-0.478-1.067-1.066s0.477-1.067 1.067-1.067 1.067 0.478 1.067 1.067a1.067 1.067 0 0 1-1.067 1.066z"></path></g><g id="SvgjsG1307"><path d="M14.232 5.485L6.361 15.96l1.815-7.368-4.222 0.071L5.679 0h5.121L8.744 5.489z"></path></g><g id="SvgjsG1308"><path d="M15.979 14.91H0L7.99 1.068l7.989 13.842zM3.175 13.076h9.629L7.99 4.735 3.175 13.076h0z" fill-rule="evenodd"></path><path d="M7.348 7.475h1.267v3.431h-1.267V7.475z m0 4.008h1.267v1.01h-1.267v-1.01z" fill-rule="evenodd"></path></g><g id="SvgjsG1314"><use xlink:href="#SvgjsG1300" transform="translate(0, 0) scale(2)" fill="rgba(0, 163, 75, 1)"></use><use xlink:href="#SvgjsG1301" transform="translate(0, 48) scale(2)" fill="rgba(0, 163, 75, 1)"></use><use xlink:href="#SvgjsG1301" transform="translate(0, 96) scale(2)" fill="rgba(0, 163, 75, 1)"></use><use xlink:href="#SvgjsG1302" transform="translate(0, 144) scale(2)" fill="rgba(0, 163, 75, 1)"></use><use xlink:href="#SvgjsG1300" transform="translate(0, 192) scale(2)" fill="rgba(0, 163, 75, 1)"></use><use xlink:href="#SvgjsG1303" transform="translate(0, 240) scale(2)" fill="rgba(0, 163, 75, 1)"></use><use xlink:href="#SvgjsG1304" transform="translate(0, 288) scale(2)" fill="rgba(0, 163, 75, 1)"></use><use xlink:href="#SvgjsG1305" transform="translate(0, 336) scale(2)" fill="rgba(0, 163, 75, 1)"></use><use xlink:href="#SvgjsG1306" transform="translate(0, 384) scale(2)" fill="rgba(0, 163, 75, 1)"></use><use xlink:href="#SvgjsG1307" transform="translate(0, 432) scale(2)" fill="rgba(0, 163, 75, 1)"></use><use xlink:href="#SvgjsG1308" transform="translate(48, 0) scale(2)" fill="rgba(0, 163, 75, 1)"></use><use xlink:href="#SvgjsG1309" transform="translate(48, 48) scale(2)" fill="rgba(0, 163, 75, 1)"></use><use xlink:href="#SvgjsG1300" transform="translate(48, 96) scale(2)" fill="rgba(0, 163, 75, 1)"></use><use xlink:href="#SvgjsG1307" transform="translate(48, 144) scale(2)" fill="rgba(0, 163, 75, 1)"></use><use xlink:href="#SvgjsG1308" transform="translate(48, 192) scale(2)" fill="rgba(0, 163, 75, 1)"></use><use xlink:href="#SvgjsG1301" transform="translate(48, 240) scale(2)" fill="rgba(0, 163, 75, 1)"></use><use xlink:href="#SvgjsG1309" transform="translate(48, 288) scale(2)" fill="rgba(0, 163, 75, 1)"></use><use xlink:href="#SvgjsG1302" transform="translate(48, 336) scale(2)" fill="rgba(0, 163, 75, 1)"></use><use xlink:href="#SvgjsG1308" transform="translate(48, 384) scale(2)" fill="rgba(0, 163, 75, 1)"></use><use xlink:href="#SvgjsG1301" transform="translate(48, 432) scale(2)" fill="rgba(0, 163, 75, 1)"></use><use xlink:href="#SvgjsG1310" transform="translate(96, 0) scale(2)" fill="rgba(0, 163, 75, 1)"></use><use xlink:href="#SvgjsG1311" transform="translate(96, 48) scale(2)" fill="rgba(0, 163, 75, 1)"></use><use xlink:href="#SvgjsG1303" transform="translate(96, 96) scale(2)" fill="rgba(0, 163, 75, 1)"></use><use xlink:href="#SvgjsG1302" transform="translate(96, 144) scale(2)" fill="rgba(0, 163, 75, 1)"></use><use xlink:href="#SvgjsG1301" transform="translate(96, 192) scale(2)" fill="rgba(0, 163, 75, 1)"></use><use xlink:href="#SvgjsG1306" transform="translate(96, 240) scale(2)" fill="rgba(0, 163, 75, 1)"></use><use xlink:href="#SvgjsG1312" transform="translate(96, 288) scale(2)" fill="rgba(0, 163, 75, 1)"></use><use xlink:href="#SvgjsG1311" transform="translate(96, 336) scale(2)" fill="rgba(0, 163, 75, 1)"></use><use xlink:href="#SvgjsG1305" transform="translate(96, 384) scale(2)" fill="rgba(0, 163, 75, 1)"></use><use xlink:href="#SvgjsG1307" transform="translate(96, 432) scale(2)" fill="rgba(0, 163, 75, 1)"></use><use xlink:href="#SvgjsG1301" transform="translate(144, 0) scale(2)" fill="rgba(0, 163, 75, 1)"></use><use xlink:href="#SvgjsG1308" transform="translate(144, 48) scale(2)" fill="rgba(0, 163, 75, 1)"></use><use xlink:href="#SvgjsG1310" transform="translate(144, 96) scale(2)" fill="rgba(0, 163, 75, 1)"></use><use xlink:href="#SvgjsG1313" transform="translate(144, 144) scale(2)" fill="rgba(0, 163, 75, 1)"></use><use xlink:href="#SvgjsG1301" transform="translate(144, 192) scale(2)" fill="rgba(0, 163, 75, 1)"></use><use xlink:href="#SvgjsG1310" transform="translate(144, 240) scale(2)" fill="rgba(0, 163, 75, 1)"></use><use xlink:href="#SvgjsG1301" transform="translate(144, 288) scale(2)" fill="rgba(0, 163, 75, 1)"></use><use xlink:href="#SvgjsG1305" transform="translate(144, 336) scale(2)" fill="rgba(0, 163, 75, 1)"></use><use xlink:href="#SvgjsG1309" transform="translate(144, 384) scale(2)" fill="rgba(0, 163, 75, 1)"></use><use xlink:href="#SvgjsG1311" transform="translate(144, 432) scale(2)" fill="rgba(0, 163, 75, 1)"></use><use xlink:href="#SvgjsG1313" transform="translate(192, 0) scale(2)" fill="rgba(0, 163, 75, 1)"></use><use xlink:href="#SvgjsG1310" transform="translate(192, 48) scale(2)" fill="rgba(0, 163, 75, 1)"></use><use xlink:href="#SvgjsG1304" transform="translate(192, 96) scale(2)" fill="rgba(0, 163, 75, 1)"></use><use xlink:href="#SvgjsG1309" transform="translate(192, 144) scale(2)" fill="rgba(0, 163, 75, 1)"></use><use xlink:href="#SvgjsG1302" transform="translate(192, 192) scale(2)" fill="rgba(0, 163, 75, 1)"></use><use xlink:href="#SvgjsG1307" transform="translate(192, 240) scale(2)" fill="rgba(0, 163, 75, 1)"></use><use xlink:href="#SvgjsG1310" transform="translate(192, 288) scale(2)" fill="rgba(0, 163, 75, 1)"></use><use xlink:href="#SvgjsG1307" transform="translate(192, 336) scale(2)" fill="rgba(0, 163, 75, 1)"></use><use xlink:href="#SvgjsG1310" transform="translate(192, 384) scale(2)" fill="rgba(0, 163, 75, 1)"></use><use xlink:href="#SvgjsG1300" transform="translate(192, 432) scale(2)" fill="rgba(0, 163, 75, 1)"></use><use xlink:href="#SvgjsG1303" transform="translate(240, 0) scale(2)" fill="rgba(0, 163, 75, 1)"></use><use xlink:href="#SvgjsG1301" transform="translate(240, 48) scale(2)" fill="rgba(0, 163, 75, 1)"></use><use xlink:href="#SvgjsG1304" transform="translate(240, 96) scale(2)" fill="rgba(0, 163, 75, 1)"></use><use xlink:href="#SvgjsG1303" transform="translate(240, 144) scale(2)" fill="rgba(0, 163, 75, 1)"></use><use xlink:href="#SvgjsG1309" transform="translate(240, 192) scale(2)" fill="rgba(0, 163, 75, 1)"></use><use xlink:href="#SvgjsG1301" transform="translate(240, 240) scale(2)" fill="rgba(0, 163, 75, 1)"></use><use xlink:href="#SvgjsG1307" transform="translate(240, 288) scale(2)" fill="rgba(0, 163, 75, 1)"></use><use xlink:href="#SvgjsG1306" transform="translate(240, 336) scale(2)" fill="rgba(0, 163, 75, 1)"></use><use xlink:href="#SvgjsG1306" transform="translate(240, 384) scale(2)" fill="rgba(0, 163, 75, 1)"></use><use xlink:href="#SvgjsG1305" transform="translate(240, 432) scale(2)" fill="rgba(0, 163, 75, 1)"></use><use xlink:href="#SvgjsG1306" transform="translate(288, 0) scale(2)" fill="rgba(0, 163, 75, 1)"></use><use xlink:href="#SvgjsG1302" transform="translate(288, 48) scale(2)" fill="rgba(0, 163, 75, 1)"></use><use xlink:href="#SvgjsG1307" transform="translate(288, 96) scale(2)" fill="rgba(0, 163, 75, 1)"></use><use xlink:href="#SvgjsG1306" transform="translate(288, 144) scale(2)" fill="rgba(0, 163, 75, 1)"></use><use xlink:href="#SvgjsG1313" transform="translate(288, 192) scale(2)" fill="rgba(0, 163, 75, 1)"></use><use xlink:href="#SvgjsG1300" transform="translate(288, 240) scale(2)" fill="rgba(0, 163, 75, 1)"></use><use xlink:href="#SvgjsG1306" transform="translate(288, 288) scale(2)" fill="rgba(0, 163, 75, 1)"></use><use xlink:href="#SvgjsG1311" transform="translate(288, 336) scale(2)" fill="rgba(0, 163, 75, 1)"></use><use xlink:href="#SvgjsG1311" transform="translate(288, 384) scale(2)" fill="rgba(0, 163, 75, 1)"></use><use xlink:href="#SvgjsG1302" transform="translate(288, 432) scale(2)" fill="rgba(0, 163, 75, 1)"></use><use xlink:href="#SvgjsG1312" transform="translate(336, 0) scale(2)" fill="rgba(0, 163, 75, 1)"></use><use xlink:href="#SvgjsG1305" transform="translate(336, 48) scale(2)" fill="rgba(0, 163, 75, 1)"></use><use xlink:href="#SvgjsG1309" transform="translate(336, 96) scale(2)" fill="rgba(0, 163, 75, 1)"></use><use xlink:href="#SvgjsG1304" transform="translate(336, 144) scale(2)" fill="rgba(0, 163, 75, 1)"></use><use xlink:href="#SvgjsG1313" transform="translate(336, 192) scale(2)" fill="rgba(0, 163, 75, 1)"></use><use xlink:href="#SvgjsG1309" transform="translate(336, 240) scale(2)" fill="rgba(0, 163, 75, 1)"></use><use xlink:href="#SvgjsG1301" transform="translate(336, 288) scale(2)" fill="rgba(0, 163, 75, 1)"></use><use xlink:href="#SvgjsG1312" transform="translate(336, 336) scale(2)" fill="rgba(0, 163, 75, 1)"></use><use xlink:href="#SvgjsG1309" transform="translate(336, 384) scale(2)" fill="rgba(0, 163, 75, 1)"></use><use xlink:href="#SvgjsG1304" transform="translate(336, 432) scale(2)" fill="rgba(0, 163, 75, 1)"></use><use xlink:href="#SvgjsG1306" transform="translate(384, 0) scale(2)" fill="rgba(0, 163, 75, 1)"></use><use xlink:href="#SvgjsG1305" transform="translate(384, 48) scale(2)" fill="rgba(0, 163, 75, 1)"></use><use xlink:href="#SvgjsG1300" transform="translate(384, 96) scale(2)" fill="rgba(0, 163, 75, 1)"></use><use xlink:href="#SvgjsG1310" transform="translate(384, 144) scale(2)" fill="rgba(0, 163, 75, 1)"></use><use xlink:href="#SvgjsG1308" transform="translate(384, 192) scale(2)" fill="rgba(0, 163, 75, 1)"></use><use xlink:href="#SvgjsG1303" transform="translate(384, 240) scale(2)" fill="rgba(0, 163, 75, 1)"></use><use xlink:href="#SvgjsG1302" transform="translate(384, 288) scale(2)" fill="rgba(0, 163, 75, 1)"></use><use xlink:href="#SvgjsG1305" transform="translate(384, 336) scale(2)" fill="rgba(0, 163, 75, 1)"></use><use xlink:href="#SvgjsG1309" transform="translate(384, 384) scale(2)" fill="rgba(0, 163, 75, 1)"></use><use xlink:href="#SvgjsG1306" transform="translate(384, 432) scale(2)" fill="rgba(0, 163, 75, 1)"></use><use xlink:href="#SvgjsG1304" transform="translate(432, 0) scale(2)" fill="rgba(0, 163, 75, 1)"></use><use xlink:href="#SvgjsG1312" transform="translate(432, 48) scale(2)" fill="rgba(0, 163, 75, 1)"></use><use xlink:href="#SvgjsG1311" transform="translate(432, 96) scale(2)" fill="rgba(0, 163, 75, 1)"></use><use xlink:href="#SvgjsG1307" transform="translate(432, 144) scale(2)" fill="rgba(0, 163, 75, 1)"></use><use xlink:href="#SvgjsG1309" transform="translate(432, 192) scale(2)" fill="rgba(0, 163, 75, 1)"></use><use xlink:href="#SvgjsG1309" transform="translate(432, 240) scale(2)" fill="rgba(0, 163, 75, 1)"></use><use xlink:href="#SvgjsG1304" transform="translate(432, 288) scale(2)" fill="rgba(0, 163, 75, 1)"></use><use xlink:href="#SvgjsG1308" transform="translate(432, 336) scale(2)" fill="rgba(0, 163, 75, 1)"></use><use xlink:href="#SvgjsG1307" transform="translate(432, 384) scale(2)" fill="rgba(0, 163, 75, 1)"></use><use xlink:href="#SvgjsG1307" transform="translate(432, 432) scale(2)" fill="rgba(0, 163, 75, 1)"></use></g></defs></svg>